<svg xmlns="http://www.w3.org/2000/svg" width="256" height="256" viewBox="0 0 100 100"><rect width="100" height="100" rx="20" fill="#1677ff"></rect><path d="M15.84 81.50L15.84 18.50L25.74 18.50L25.74 44.15L36.37 44.15L36.37 18.50L46.27 18.50L46.27 81.50L36.37 81.50L36.37 53.15L25.74 53.15L25.74 81.50L15.84 81.50ZM53.64 81.50L53.64 18.50L68.31 18.50Q75.97 18.50 79.47 22.05Q82.98 25.61 82.98 32.99L82.98 32.99L82.98 36.86Q82.98 46.67 76.50 49.28L76.50 49.28L76.50 49.46Q80.10 50.54 81.59 53.87Q83.07 57.20 83.07 62.78L83.07 62.78L83.07 73.85Q83.07 76.55 83.25 78.22Q83.44 79.88 84.16 81.50L84.16 81.50L74.07 81.50Q73.53 79.97 73.35 78.62Q73.17 77.27 73.17 73.76L73.17 73.76L73.17 62.24Q73.17 57.92 71.78 56.21Q70.38 54.50 66.97 54.50L66.97 54.50L63.55 54.50L63.55 81.50L53.64 81.50ZM63.55 45.50L67.14 45.50Q70.11 45.50 71.60 43.97Q73.08 42.44 73.08 38.84L73.08 38.84L73.08 33.98Q73.08 30.56 71.87 29.03Q70.66 27.50 68.05 27.50L68.05 27.50L63.55 27.50L63.55 45.50Z" fill="#fff"></path></svg>